<?xml version="1.0" encoding="UTF-8"?>
<svg width="752pt" height="752pt" version="1.1" viewBox="0 0 752 752" xmlns="http://www.w3.org/2000/svg">
 <g fill-rule="evenodd">
  <path d="m501.24 292.53c48.105 33.512 79.289 74.227 81.473 77.113l6.3984 8.4688-6.3633 8.4961c-3.7422 5.0117-93.039 122.71-206.75 122.71-26.641 0-51.945-6.4609-75.121-16.422l21.812-21.812c16.945 6.1914 34.859 9.9844 53.309 9.9844 83.223 0 155.21-76.809 177.23-102.86-11.828-13.82-37.973-42.004-72.445-65.223zm-24.656-15.527c-29.598-16.672-63.816-28.867-100.59-28.867-113.67 0-202.96 116.55-206.71 121.51l-6.3984 8.4688 6.3633 8.4961c2.5156 3.3672 43.66 57.613 104.88 92.844l20.875-20.879c-46.141-24.789-81.848-63.402-96.238-80.383 22.055-25.836 94.02-101.8 177.23-101.8 28.34 0 55.41 8.8555 79.652 21.551zm-149.23 149.23c-11.984-12.27-19.379-29.039-19.379-47.508 0-37.516 30.512-68.027 68.027-68.027 18.469 0 35.242 7.3945 47.512 19.379zm24.203 15.98c7.5898 2.9336 15.836 4.5391 24.445 4.5391 37.516 0 68.031-30.512 68.031-68.027 0-8.6133-1.6094-16.855-4.5391-24.445z"/>
  <path d="m512.92 201.12 20.09 20.094-325.63 325.63-20.094-20.09z"/>
 </g>
</svg>
