<?xml version="1.0" encoding="UTF-8"?>
<svg width="752pt" height="752pt" version="1.1" viewBox="0 0 752 752" xmlns="http://www.w3.org/2000/svg">
 <path d="m307.97 373.99c0 37.516 30.512 68.027 68.027 68.027s68.031-30.512 68.031-68.027-30.516-68.031-68.031-68.031-68.027 30.516-68.027 68.031zm-109.2-0.53906c22.055-25.832 94.02-101.8 177.23-101.8 83.02 0 155.12 75.996 177.23 101.82-22.016 26.043-94.008 102.86-177.23 102.86-83.031 0-155.17-76.848-177.23-102.88zm383.94-8.543c-3.75-4.957-93.047-121.51-206.71-121.51s-202.96 116.55-206.71 121.51l-6.3984 8.4648 6.3633 8.4961c3.7422 5.0156 93.039 122.71 206.75 122.71 113.71 0 203.01-117.69 206.75-122.71l6.3633-8.4961z" fill-rule="evenodd"/>
</svg>
